<?xml version="1.0" encoding="utf-8"?>
<!-- Generator: Adobe Illustrator 25.0.1, SVG Export Plug-In . SVG Version: 6.00 Build 0)  -->
<svg version="1.1" id="Layer_1" xmlns="http://www.w3.org/2000/svg" xmlns:xlink="http://www.w3.org/1999/xlink" x="0px" y="0px"
	 viewBox="0 0 871.1 661.5" style="enable-background:new 0 0 871.1 661.5;" xml:space="preserve">
<path d="M110.2,251.9c11.5-2.4,22.5-5.4,33.6-6.9c12.6-1.8,23.6-6.7,34-13.6c20.9-13.9,43.2-25.9,62.2-42.6
	c28.7-25.2,50.4-55.7,67.9-89.4c2-4,4.2-7.9,6.8-11.7c10.6-14.9,31.3-18.4,46.2-7.7c11.6,8.3,16.6,23.1,12.4,36.7
	c-1,3.3-2.3,6.6-3.9,9.7c-24.4,48.6-56.3,91.2-99.6,124.7c-0.5,0.4-1,0.8-1.5,1.3c-0.2,0.3-0.3,0.6-0.4,1c0.3,0.3,0.6,0.7,1,0.9
	c40,21,71.9,51.3,99.6,86.5c22.2,28.1,41,58.8,56.1,91.3c9.3,20.1,2,40.7-16.8,48.1c-14.5,5.8-31.1,0.6-39.7-12.4
	c-2.7-4.2-5.1-8.6-7.2-13.1c-20.9-42.2-47.2-80.4-82.3-112.1c-14.4-13-30.1-24.4-48.1-31.9c-19.4-8-39.4-8-59-1
	c-20.2,7.3-40.6,12.9-62,15c-5.4,0.5-6.4,2.4-6.4,7.3c0,43.6,4.5,86.8,14.4,129.3c2.5,10.7,5.6,21.2,8.1,32
	c3.4,14.7-2,28.7-13.6,36.5c-15.5,10.2-36.3,5.9-46.5-9.5c-2.2-3.3-3.7-6.9-4.6-10.7c-5.7-24-12.2-48-16.5-72.4
	c-8.2-46.1-10.2-92.7-7.2-139.4c5-79.7,25.9-157.6,61.3-229.2c5.2-10.6,10.7-21.1,16.6-31.4c6-10.6,15.2-17.2,27.7-18
	c23.5-1.5,40.7,20.4,33.7,43.1c-1.7,4.9-3.8,9.6-6.4,14c-29.3,53.3-49.3,111.1-59.4,171C110.6,248.7,110.4,250.2,110.2,251.9z"/>
<path d="M540.8,331.6c-2.5,18.7-4.7,37.2-7.4,55.7c-11.1,78.5-26.8,156.3-46.9,233c-3.5,13.4-11.5,22.9-25.4,26.2
	c-12.3,3-23.2-0.3-31.9-9.6c-8.4-9-10.7-19.8-8-31.6c5.6-24.3,11.9-48.5,17.4-72.9c15-66.8,26.5-134.3,34.5-202.3
	c0.3-2.3,0.4-4.6,0.6-7.2c-9-1.8-17.6-3.5-26.2-5.2c-39.1-8-77.1-19.5-114.4-33.6c-13.3-5-22.5-13.8-24.4-28.4
	c-3.1-23.3,17.5-42,40.7-36.5c10.6,2.5,20.8,7,31.2,10.5c79.1,27,160.2,39.1,243.8,35c65.7-3.2,131.5-5.8,197.2-8.7
	c15.2-0.7,27.7,4,35.3,17.9c10.9,20.1-1.7,45-24.6,48.2c-9.9,1.4-19.9,1.3-29.9,1.8c-58.1,2.7-116.2,5.7-174.3,7.8
	c-25.8,0.9-51.6-0.1-77.5-0.3C547.6,331.6,544.5,331.6,540.8,331.6z"/>
</svg>
